<svg width="34" height="34" viewBox="0 0 34 34" fill="none" xmlns="http://www.w3.org/2000/svg">
<g clip-path="url(#clip0_0_1896)">
<path d="M27.1899 13.3891C26.3334 13.3891 25.5137 13.5493 24.7587 13.8407C24.1672 12.5262 23.6562 11.1361 23.4009 9.8428C22.991 7.76579 21.1556 6.2583 19.0367 6.2583C18.4997 6.2583 18.0643 6.6937 18.0643 7.23075C18.0643 7.7678 18.4997 8.20319 19.0367 8.20319C19.2681 8.20319 19.4934 8.23548 19.708 8.29545C20.3604 8.47775 20.914 8.91898 21.2368 9.51152C21.2107 9.54471 21.1858 9.57914 21.1637 9.61642L20.8616 10.125L19.3332 12.6981H11.167L10.7028 11.5298H10.8955C11.4325 11.5298 11.8679 11.0944 11.8679 10.5574C11.8679 10.0203 11.4325 9.58491 10.8955 9.58491H7.54254C7.00549 9.58491 6.57009 10.0203 6.57009 10.5574C6.57009 11.0944 7.00549 11.5298 7.54254 11.5298H8.61002L9.45864 13.6656C8.8508 13.486 8.20782 13.3891 7.54254 13.3891C3.80802 13.3891 0.769775 16.4274 0.769775 20.1618C0.769775 23.8963 3.80802 26.9345 7.54247 26.9345C10.9467 26.9345 13.772 24.4097 14.2451 21.1343H16.031C16.374 21.1343 16.6918 20.9535 16.867 20.6585L21.9773 12.0552C22.2771 12.9829 22.6523 13.9124 23.0568 14.8005C21.4525 16.0401 20.4172 17.9822 20.4172 20.1619C20.4172 23.8963 23.4554 26.9346 27.1899 26.9346C30.9244 26.9346 33.9626 23.8963 33.9626 20.1619C33.9626 16.4274 30.9244 13.3891 27.1899 13.3891ZM7.54247 21.1343H12.2719C11.8207 23.3318 9.87154 24.9896 7.54247 24.9896C4.88043 24.9896 2.71467 22.8239 2.71467 20.1618C2.71467 17.4998 4.88043 15.334 7.54247 15.334C9.87154 15.334 11.8207 16.9918 12.2719 19.1894H7.54247C7.00542 19.1894 6.57003 19.6248 6.57003 20.1618C6.57003 20.6989 7.00542 21.1343 7.54247 21.1343ZM15.4775 19.1894H14.2451C14.0194 17.627 13.2586 16.2357 12.1549 15.2075C12.1448 15.1684 12.1331 15.1295 12.1178 15.0911L11.9397 14.6431H18.178L15.4775 19.1894ZM27.1899 24.9896C24.5278 24.9896 22.3621 22.8238 22.3621 20.1617C22.3621 18.7515 22.9701 17.4807 23.9375 16.5972C25.1335 18.8829 26.3017 20.5867 26.3896 20.7142C26.5783 20.9875 26.8819 21.1343 27.1907 21.1343C27.3812 21.1343 27.5737 21.0784 27.7423 20.962C28.1843 20.6569 28.2953 20.0513 27.9902 19.6093C27.9693 19.5789 26.7925 17.8628 25.6141 15.5994C26.1083 15.4281 26.6382 15.3339 27.1899 15.3339C29.8519 15.3339 32.0177 17.4996 32.0177 20.1617C32.0177 22.8237 29.8519 24.9896 27.1899 24.9896Z" fill="#40E0E6"/>
</g>
<defs>
<clipPath id="clip0_0_1896">
<rect width="33.1928" height="33.1928" fill="white" transform="translate(0.769775)"/>
</clipPath>
</defs>
</svg>
