<svg width="30" height="29" viewBox="0 0 30 29" fill="none" xmlns="http://www.w3.org/2000/svg">
<g clip-path="url(#clip0_0_1900)">
<path d="M26.6699 7.38818C26.4396 5.13601 26.0726 3.38246 25.492 2.69321C23.0982 -0.140782 6.33023 -0.348177 4.42642 2.69321C3.96071 3.43835 3.63409 5.18569 3.4149 7.39191C2.70764 7.47512 2.15686 8.0706 2.15686 8.79959V11.5585C2.15686 12.1719 2.54557 12.6892 3.08828 12.891C2.95974 17.2364 3.06406 21.7699 3.25655 24.0246C3.25655 25.7651 4.42579 25.4763 4.42579 25.4763H5.52176V27.3553C5.52176 28.1004 6.28987 28.7034 7.23619 28.7034C8.18376 28.7034 8.95187 28.1004 8.95187 27.3553V25.4763H21.7024V27.3553C21.7024 28.1004 22.4699 28.7034 23.4174 28.7034C24.3637 28.7034 25.1318 28.1004 25.1318 27.3553V25.4763H25.492C25.492 25.4763 26.868 25.6651 26.9562 24.8454C26.9562 22.597 27.0978 17.6139 26.981 12.9103C27.5579 12.7296 27.9789 12.198 27.9789 11.5585V8.79959C27.9795 8.05322 27.402 7.44779 26.6699 7.38818ZM8.52155 3.09745H21.3969V5.04536H8.52155V3.09745ZM8.70535 23.2577C7.69445 23.2577 6.87542 22.438 6.87542 21.4271C6.87542 20.4169 7.69445 19.5978 8.70535 19.5978C9.71625 19.5978 10.5359 20.4169 10.5359 21.4271C10.5359 22.438 9.71687 23.2577 8.70535 23.2577ZM21.3279 23.2577C20.3177 23.2577 19.4968 22.438 19.4968 21.4271C19.4968 20.4169 20.317 19.5978 21.3279 19.5978C22.3388 19.5978 23.1579 20.4169 23.1579 21.4271C23.1585 22.438 22.3388 23.2577 21.3279 23.2577ZM23.6546 15.2475H6.26379V6.1258H23.6546V15.2475Z" fill="#40E0E6"/>
</g>
<defs>
<clipPath id="clip0_0_1900">
<rect width="28.2139" height="28.2139" fill="white" transform="translate(0.962524 0.489502)"/>
</clipPath>
</defs>
</svg>
