<svg width="33" height="33" viewBox="0 0 33 33" fill="none" xmlns="http://www.w3.org/2000/svg">
<g clip-path="url(#clip0_26_233)">
<path d="M32.1383 12.3083C32.0614 12.0843 31.7887 11.9102 31.5611 11.9102C30.5753 11.9102 29.5897 11.9102 28.6039 11.9102C28.3764 11.9102 28.1036 12.0843 28.0266 12.3083C27.9513 12.5275 27.8951 12.7231 27.8577 12.907L25.8823 7.44214C25.5565 6.54099 24.6937 5.93555 23.7355 5.93555H8.62756C7.66934 5.93555 6.80665 6.54099 6.48068 7.4423L4.50527 12.9077C4.46779 12.7236 4.41154 12.5277 4.33617 12.3083C4.25925 12.0843 3.98651 11.9102 3.75894 11.9102C2.77325 11.9102 1.78755 11.9102 0.801771 11.9102C0.574207 11.9102 0.30146 12.0843 0.224539 12.3083C-0.0749421 13.1803 -0.0747781 13.6794 0.224621 14.5515C0.301542 14.7754 0.574289 14.9496 0.801853 14.9496C1.78763 14.9496 2.77333 14.9496 3.75903 14.9496C3.76181 14.9496 3.76477 14.9489 3.76764 14.9488L3.72303 15.0724C3.12004 15.2727 2.68468 15.8403 2.68468 16.5106V21.0869V21.464V26.528C2.68468 26.9306 3.0109 27.2568 3.41346 27.2568H7.08128C7.48376 27.2568 7.81006 26.9306 7.81006 26.528V22.9803H24.553V26.528C24.553 26.9306 24.8793 27.2568 25.2817 27.2568H28.9496C29.3521 27.2568 29.6783 26.9306 29.6783 26.528V21.464V21.0869V16.5106C29.6783 15.8405 29.2431 15.2729 28.6404 15.0724L28.5957 14.9488C28.5984 14.9489 28.6013 14.9495 28.604 14.9495C29.5898 14.9495 30.5754 14.9495 31.5612 14.9495C31.7888 14.9495 32.0615 14.7753 32.1384 14.5514C32.4378 13.6794 32.4376 13.1803 32.1383 12.3083ZM8.90663 8.61743H23.4544L25.7594 14.9943H6.60172L8.90663 8.61743ZM9.31238 19.4866H6.24393C5.5856 19.4866 5.05199 18.953 5.05199 18.2946C5.05199 17.6364 5.58552 17.1027 6.24393 17.1027H9.31238C9.97064 17.1027 10.5043 17.6363 10.5043 18.2946C10.5044 18.953 9.97064 19.4866 9.31238 19.4866ZM26.1188 19.4866H23.0504C22.3921 19.4866 21.8585 18.953 21.8585 18.2946C21.8585 17.6364 22.3921 17.1027 23.0504 17.1027H26.1188C26.7772 17.1027 27.3108 17.6363 27.3108 18.2946C27.3108 18.953 26.7772 19.4866 26.1188 19.4866Z" fill="#40E0E6"/>
</g>
<defs>
<clipPath id="clip0_26_233">
<rect width="32.363" height="32.363" fill="white" transform="translate(0 0.414795)"/>
</clipPath>
</defs>
</svg>
