<svg width="30" height="30" viewBox="0 0 30 30" fill="none" xmlns="http://www.w3.org/2000/svg">
<g clip-path="url(#clip0_0_1893)">
<path d="M25.7132 20.2457L24.3761 11.6751H26.1956C26.6116 11.6751 26.9665 11.3744 27.0349 10.9641L27.6022 7.56051C27.6885 7.04294 27.2892 6.56973 26.7629 6.56973H23.5795L23.0102 2.92049L25.7557 2.11033C26.2065 1.9773 26.464 1.5041 26.331 1.05341C26.198 0.602664 25.7247 0.345184 25.2741 0.478093L21.8138 1.49916C21.4047 1.61987 21.1481 2.02495 21.2139 2.44643L22.9488 13.5668L19.9723 15.055C19.7365 15.1729 19.5686 15.3935 19.5178 15.6523L18.1754 22.499C18.0452 23.1626 17.46 23.6442 16.7837 23.6442H10.8757C10.4616 20.7616 7.97551 18.5389 4.98004 18.5389C4.51012 18.5389 4.12915 18.9198 4.12915 19.3898V20.3262C2.18957 20.7215 0.725586 22.4405 0.725586 24.4951C0.725586 26.841 2.63413 28.7495 4.98004 28.7495C7.0346 28.7495 8.75357 27.2856 9.14889 25.346H16.7837C18.2715 25.346 19.5591 24.2863 19.8453 22.8264L20.2811 20.6038L23.7742 18.8573L24.0316 20.5079C22.415 21.1113 21.2605 22.6708 21.2605 24.4952C21.2605 26.8411 23.169 28.7497 25.5149 28.7497C27.8608 28.7497 29.7694 26.8411 29.7694 24.4952C29.7694 22.2158 27.9674 20.3497 25.7132 20.2457ZM4.98009 27.0479C3.57255 27.0479 2.42742 25.9027 2.42742 24.4952C2.42742 23.386 3.13888 22.4403 4.1292 22.089V24.4952C4.1292 24.9651 4.51018 25.3461 4.98009 25.3461H7.3863C7.03499 26.3364 6.08931 27.0479 4.98009 27.0479ZM25.5149 27.0479C24.1074 27.0479 22.9622 25.9027 22.9622 24.4952C22.9622 23.5259 23.5054 22.6811 24.3033 22.249L24.6742 24.6264C24.7397 25.0462 25.1018 25.3462 25.5138 25.3462C25.5575 25.3462 25.6016 25.3429 25.6461 25.3359C26.1104 25.2635 26.4281 24.8284 26.3556 24.3641L25.9847 21.9866C27.1685 22.2078 28.0676 23.2482 28.0676 24.4952C28.0676 25.9027 26.9225 27.0479 25.5149 27.0479Z" fill="#40E0E6"/>
</g>
<defs>
<clipPath id="clip0_0_1893">
<rect width="29.0437" height="29.0437" fill="white" transform="translate(0.726074 0.0744629)"/>
</clipPath>
</defs>
</svg>
