<svg width="29" height="29" viewBox="0 0 29 29" fill="none" xmlns="http://www.w3.org/2000/svg">
<g clip-path="url(#clip0_0_1903)">
<path d="M25.8839 7.38818C25.6535 5.13601 25.2866 3.38246 24.706 2.69321C22.3122 -0.140782 5.54421 -0.348177 3.6404 2.69321C3.17469 3.43835 2.84807 5.18569 2.62888 7.39191C1.92162 7.47512 2.37084 11.0706 2.37084 11.7996V11.5585C2.37084 12.1719 1.75955 12.6892 2.30226 12.891C2.17372 17.2364 2.27804 21.7699 2.47053 24.0246C2.47053 25.7651 3.63977 25.4763 3.63977 25.4763H4.73574V27.3553C4.73574 28.1004 5.50385 28.7034 6.45017 28.7034C7.39774 28.7034 8.16585 28.1004 8.16585 27.3553V25.4763H20.9163V27.3553C20.9163 28.1004 21.6838 28.7034 22.6314 28.7034C23.5777 28.7034 24.3458 28.1004 24.3458 27.3553V25.4763H24.706C24.706 25.4763 26.082 25.6651 26.1702 24.8454C26.1702 22.597 26.3117 17.6139 26.195 12.9103C26.7719 12.7296 26.1929 12.198 26.1929 11.5585V11.7996C26.1935 11.0532 26.616 7.44779 25.8839 7.38818ZM7.91933 23.2577C6.90843 23.2577 6.0894 22.438 6.0894 21.4271C6.0894 20.4169 6.90843 19.5978 7.91933 19.5978C8.93023 19.5978 9.74988 20.4169 9.74988 21.4271C9.74988 22.438 8.93085 23.2577 7.91933 23.2577ZM20.5419 23.2577C19.5316 23.2577 18.7107 22.438 18.7107 21.4271C18.7107 20.4169 19.531 19.5978 20.5419 19.5978C21.5528 19.5978 22.3718 20.4169 22.3718 21.4271C22.3725 22.438 21.5528 23.2577 20.5419 23.2577ZM22.8686 12.2475C22.8686 13.9043 21.5254 15.2475 19.8686 15.2475H8.47777C6.82092 15.2475 5.47777 13.9043 5.47777 12.2475V6.1258C5.47777 4.46894 6.82092 3.1258 8.47777 3.1258H19.8686C21.5254 3.1258 22.8686 4.46895 22.8686 6.1258V12.2475Z" fill="#40E0E6"/>
<path d="M18.8671 13L18.8451 5.30005H16.7111L14.2691 9.40305L11.7611 5.30005H9.62708V13H11.9921V9.61205L13.6641 12.307H14.8081L16.4801 9.49105L16.5021 13H18.8671Z" fill="#40E0E6"/>
</g>
<defs>
<clipPath id="clip0_0_1903">
<rect width="28.2139" height="28.2139" fill="white" transform="translate(0.176514 0.489502)"/>
</clipPath>
</defs>
</svg>
