<svg width="29" height="29" viewBox="0 0 29 29" fill="none" xmlns="http://www.w3.org/2000/svg">
<path d="M14.6672 26C21.5452 26 25 22.6066 25 18.5847C25 10.4781 12.7338 12.6776 12.7338 10.0383C12.7338 9.28415 13.4311 8.65574 15.6181 8.65574C17.5515 8.65574 19.6117 9.18989 21.7987 10.2896L24.0491 4.91667C21.7353 3.62842 18.6609 3 15.6815 3C8.80349 3 5.34865 6.3306 5.34865 10.4153C5.34865 18.6161 17.6149 16.3852 17.6149 19.1503C17.6149 19.9044 16.8542 20.3443 14.7306 20.3443C12.29 20.3443 9.50079 19.5587 7.40887 18.3333L5 23.7377C7.2187 25.0888 10.9588 26 14.6672 26Z" fill="#40E0E6"/>
</svg>
