<svg width="33" height="33" viewBox="0 0 33 33" fill="none" xmlns="http://www.w3.org/2000/svg">
<g clip-path="url(#clip0_0_1887)">
<path d="M7.50944 14.6335V11.0942H4.41257C3.92952 11.0942 3.52371 11.4575 3.47036 11.9376C3.46177 12.0153 3.32709 13.3194 3.7774 14.6335H7.50944Z" fill="#40E0E6"/>
<path d="M15.467 11.9376C15.4137 11.4575 15.0079 11.0942 14.5248 11.0942H9.40552V14.6335H15.1595C15.6099 13.3194 15.4756 12.0153 15.467 11.9376Z" fill="#40E0E6"/>
<path d="M2.14627 24.4193L0.808039 21.7424C-0.623347 24.7331 1.58302 28.1586 4.85476 28.1586C6.25025 28.1586 7.49817 27.5176 8.32155 26.5153H5.53791C4.09243 26.5153 2.79282 25.7122 2.14627 24.4193Z" fill="#40E0E6"/>
<path d="M26.95 19.3738C26.6187 18.7676 26.2769 18.1399 25.9481 17.5322L26.3521 17.2628C27.5131 16.4888 27.9444 15.0016 27.3778 13.7264C27.3027 13.5575 27.5048 13.826 24.3253 9.9689L22.2798 10.4803C21.7829 10.6045 21.2771 10.3115 21.1377 9.81867C20.9921 9.30389 21.301 8.77066 21.82 8.64091L23.8577 8.13151C24.5055 7.96952 24.795 7.2008 24.4002 6.66213C23.6056 5.57772 22.3193 4.86355 20.9886 5.06889L17.4142 5.61868C16.8967 5.69825 16.5416 6.18225 16.6211 6.69968C16.7008 7.21723 17.1847 7.57224 17.7021 7.49273L18.4683 7.37498C19.561 11.1867 18.8975 8.83544 21.5806 18.4388L19.7137 21.1059C19.004 22.1196 17.8444 22.7234 16.607 22.7234H16.2759L15.6123 20.0689H13.54C13.0295 20.0689 12.5903 19.6766 12.5663 19.1667C12.5406 18.6223 12.9744 18.1729 13.5132 18.1729H15.1383L14.7274 16.5297H2.0948C1.3372 16.5297 0.692106 17.2704 1.04774 17.9819L3.84213 23.5715C4.1654 24.2179 4.81518 24.6194 5.53795 24.6194H16.6072C18.4616 24.6194 20.2037 23.7124 21.2671 22.1932L23.2888 19.3051L24.3639 18.5884C24.6809 19.1736 24.9991 19.7576 25.2907 20.2911C25.7666 19.876 26.3296 19.5595 26.9494 19.3737C27.1891 19.8112 28.7433 22.6475 29.0433 23.169C29.4245 23.7764 29.0198 24.6198 28.2388 24.6194C27.6824 24.6192 27.455 24.2136 27.3191 23.9716C26.8585 23.1482 25.7518 21.1352 25.2912 20.2929C24.349 21.116 23.752 22.325 23.752 23.6714C23.752 26.1543 25.6995 28.1587 28.1761 28.1587C30.6652 28.1587 32.7266 26.143 32.7266 23.6714C32.7266 20.679 29.8306 18.5079 26.95 19.3738Z" fill="#40E0E6"/>
</g>
<defs>
<clipPath id="clip0_0_1887">
<rect width="32.363" height="32.363" fill="white" transform="translate(0.363037 0.414795)"/>
</clipPath>
</defs>
</svg>
