<svg width="27" height="27" viewBox="0 0 27 27" fill="none" xmlns="http://www.w3.org/2000/svg">
<g clip-path="url(#clip0_0_1916)">
<path d="M25.4541 10.0659C25.3343 10.0659 25.2113 10.083 25.0886 10.1169L23.799 10.4721L22.4357 7.15168C22.0273 6.15652 20.8197 5.34679 19.7438 5.34679H18.8367V2.59402C18.8367 2.11012 18.4432 1.71655 17.9593 1.71655H8.6598C8.17591 1.71655 7.78234 2.11012 7.78234 2.59402V5.34679H6.85656C5.78079 5.34679 4.57305 6.1564 4.16462 7.15156L2.80326 10.4674L1.53047 10.1168C1.40774 10.083 1.28466 10.0658 1.16498 10.0658C0.508753 10.0659 0.0323486 10.5673 0.0323486 11.2581V11.9638C0.0323486 12.7702 0.688457 13.4262 1.49479 13.4262H1.58862L1.39394 13.9003C1.01441 14.8249 0.705538 16.3903 0.705538 17.3897V24.0141C0.705538 24.8205 1.36153 25.4765 2.16798 25.4765H3.92606C4.73251 25.4765 5.3885 24.8205 5.3885 24.0141V22.386H21.212V24.0141C21.212 24.8205 21.8681 25.4765 22.6744 25.4765H24.4321C25.2386 25.4765 25.8946 24.8205 25.8946 24.0141V17.3897C25.8946 16.3903 25.5857 14.8249 25.2062 13.9003L25.0115 13.4262H25.1242C25.9306 13.4262 26.5866 12.7702 26.5866 11.9638V11.2581C26.5866 10.5673 26.1103 10.0659 25.4541 10.0659ZM16.8342 2.88674C16.8342 2.86743 16.85 2.85164 16.8693 2.85164H17.5453C17.5646 2.85164 17.5804 2.86743 17.5804 2.88674V5.31988C17.5804 5.33158 17.5738 5.34036 17.565 5.34679H16.8497C16.8409 5.34036 16.8342 5.33158 16.8342 5.31988V2.88674ZM11.986 2.85164H12.7983C12.8176 2.85164 12.8392 2.86626 12.8464 2.88428L13.8105 5.30795L14.6943 4.21463C14.7065 4.19966 14.7076 4.17415 14.697 4.15812L13.8488 2.88089C13.838 2.86474 13.8451 2.85164 13.8644 2.85164H14.6157C14.635 2.85164 14.6591 2.86509 14.6691 2.88147L15.1063 3.5907C15.1164 3.60719 15.133 3.60719 15.1431 3.5907L15.5806 2.88147C15.5907 2.86498 15.6148 2.85164 15.6341 2.85164H16.3857C16.405 2.85164 16.412 2.86474 16.4014 2.88089L15.5525 4.15812C15.5417 4.17427 15.543 4.19966 15.555 4.21463L16.455 5.32772C16.461 5.33509 16.4624 5.342 16.4602 5.34691H15.6625C15.652 5.34141 15.6425 5.33404 15.637 5.32527L15.1432 4.53496C15.1329 4.51859 15.1163 4.51859 15.106 4.53496L14.6132 5.32527C14.6077 5.33404 14.5982 5.34141 14.5877 5.34691H13.0847C13.0744 5.34083 13.0655 5.3324 13.0621 5.32176L12.8964 4.81447C12.8905 4.7961 12.8698 4.78112 12.8504 4.78112H11.9297C11.9104 4.78112 11.8893 4.79598 11.883 4.81423L11.7045 5.32199C11.7007 5.33252 11.6918 5.34094 11.6814 5.34691H10.9585C10.9528 5.34094 10.9503 5.33275 10.9544 5.32258L11.9377 2.8844C11.945 2.86626 11.9667 2.85164 11.986 2.85164ZM9.60863 5.31988V3.38713C9.60863 3.36782 9.59284 3.35203 9.57353 3.35203H8.761C8.7417 3.35203 8.7259 3.33623 8.7259 3.31693V2.88662C8.7259 2.86732 8.7417 2.85152 8.761 2.85152H11.2074C11.2267 2.85152 11.2425 2.86732 11.2425 2.88662V3.31693C11.2425 3.33623 11.2267 3.35203 11.2074 3.35203H10.3902C10.3709 3.35203 10.3551 3.36782 10.3551 3.38713V5.31988C10.3551 5.33158 10.3484 5.34036 10.3396 5.34679H9.62407C9.6153 5.34048 9.60863 5.33158 9.60863 5.31988ZM3.83656 12.6111L5.90796 7.56525C6.15236 6.96998 6.87878 6.48293 7.52226 6.48293H19.0781C19.7216 6.48293 20.448 6.96998 20.6924 7.56525L22.7638 12.6111C23.0082 13.2064 22.6817 13.6935 22.0382 13.6935H4.56216C3.91869 13.6935 3.59216 13.2064 3.83656 12.6111ZM8.5159 19.1093C8.5159 19.431 8.25266 19.6943 7.93092 19.6943H3.97719C3.65545 19.6943 3.39221 19.431 3.39221 19.1093V17.2336C3.39221 16.9119 3.65545 16.6486 3.97719 16.6486H7.93092C8.25266 16.6486 8.5159 16.9119 8.5159 17.2336V19.1093ZM23.1702 19.1093C23.1702 19.431 22.907 19.6943 22.5853 19.6943H18.6315C18.3098 19.6943 18.0466 19.431 18.0466 19.1093V17.2336C18.0466 16.9119 18.3098 16.6486 18.6315 16.6486H22.5853C22.907 16.6486 23.1702 16.9119 23.1702 17.2336V19.1093Z" fill="#40E0E6"/>
<path d="M12.6872 4.28065C12.7065 4.28065 12.716 4.26614 12.7084 4.24848L12.4168 3.57564C12.4091 3.55797 12.3962 3.55774 12.3883 3.57529L12.0795 4.24883C12.0716 4.26638 12.0807 4.28065 12.1 4.28065H12.6872Z" fill="#40E0E6"/>
</g>
<defs>
<clipPath id="clip0_0_1916">
<rect width="26.5543" height="26.5543" fill="white" transform="translate(0.0319824 0.319336)"/>
</clipPath>
</defs>
</svg>
