<svg width="30" height="29" viewBox="0 0 30 29" fill="none" xmlns="http://www.w3.org/2000/svg">
<g clip-path="url(#clip0_84_276)">
<path d="M26.5255 10.3882C26.2951 8.13601 25.9282 6.38246 25.3476 5.69321C22.9538 2.85922 6.18582 2.65182 4.282 5.69321C3.81629 6.43835 3.48967 8.18569 3.27048 10.3919C2.56322 10.4751 3.01244 11.0706 3.01244 11.7996V11.5585C3.01244 12.1719 2.40115 12.6892 2.94386 12.891C2.81532 17.2364 2.91964 21.7699 3.11214 24.0246C3.11214 25.7651 4.28138 25.4763 4.28138 25.4763H5.37735V27.3553C5.37735 28.1004 6.14545 28.7034 7.09178 28.7034C8.03934 28.7034 8.80745 28.1004 8.80745 27.3553V25.4763H21.5579V27.3553C21.5579 28.1004 22.3254 28.7034 23.273 28.7034C24.2193 28.7034 24.9874 28.1004 24.9874 27.3553V25.4763H25.3476C25.3476 25.4763 26.7236 25.6651 26.8118 24.8454C26.8118 22.597 26.9533 17.6139 26.8366 12.9103C27.4135 12.7296 26.8345 12.198 26.8345 11.5585V11.7996C26.8351 11.0532 27.2576 10.4478 26.5255 10.3882ZM8.56093 23.2577C7.55003 23.2577 6.73101 22.438 6.73101 21.4271C6.73101 20.4169 7.55003 19.5978 8.56093 19.5978C9.57183 19.5978 10.3915 20.4169 10.3915 21.4271C10.3915 22.438 9.57245 23.2577 8.56093 23.2577ZM21.1835 23.2577C20.1732 23.2577 19.3523 22.438 19.3523 21.4271C19.3523 20.4169 20.1726 19.5978 21.1835 19.5978C22.1944 19.5978 23.0134 20.4169 23.0134 21.4271C23.0141 22.438 22.1944 23.2577 21.1835 23.2577ZM23.5102 15.2475H6.11937V9.1258H23.5102V15.2475Z" fill="#40E0E6"/>
<rect x="11.1667" y="3.96851" width="8.74881" height="2" transform="rotate(-25.6978 11.1667 3.96851)" fill="#40E0E6"/>
<rect x="6.6416" width="16" height="2" rx="1" fill="#40E0E6"/>
</g>
<defs>
<clipPath id="clip0_84_276">
<rect width="28.2139" height="28.2139" fill="white" transform="translate(0.818115 0.489502)"/>
</clipPath>
</defs>
</svg>
