<svg width="15" height="15" viewBox="0 0 15 15" fill="none" xmlns="http://www.w3.org/2000/svg">
<path d="M1.5 3.50004L5.16667 1.83337V11.5L1.5 12.8334V3.50004Z" fill="#40E0E6"/>
<path d="M0.833313 2.83337L5.49998 0.833374L9.49998 2.83337L13.702 1.03271C13.7527 1.01096 13.808 1.00215 13.863 1.00707C13.918 1.01198 13.9709 1.03047 14.0169 1.06087C14.063 1.09127 14.1008 1.13263 14.1269 1.18124C14.153 1.22985 14.1667 1.28419 14.1666 1.33937V12.1667L9.49998 14.1667L5.49998 12.1667L1.29798 13.9674C1.24726 13.9891 1.19193 13.9979 1.13696 13.993C1.08199 13.9881 1.0291 13.9696 0.983038 13.9392C0.936976 13.9088 0.899184 13.8675 0.873051 13.8188C0.846918 13.7702 0.833264 13.7159 0.833313 13.6607V2.83337ZM10.1666 12.43L12.8333 11.2874V2.85537L10.1666 3.99804V12.43ZM8.83331 12.3427V3.99071L6.16665 2.65737V11.0094L8.83331 12.3427ZM4.83331 11.002V2.57004L2.16665 3.71271V12.1447L4.83331 11.002Z" fill="white"/>
</svg>
