<svg width="33" height="32" viewBox="0 0 33 32" fill="none" xmlns="http://www.w3.org/2000/svg">
<path d="M5.83331 16.0002C5.83331 14.1146 5.83331 13.1718 6.4191 12.586C7.00489 12.0002 7.9477 12.0002 9.83331 12.0002H23.1666C25.0523 12.0002 25.9951 12.0002 26.5809 12.586C27.1666 13.1718 27.1666 14.1146 27.1666 16.0002V22.0002C27.1666 24.8287 27.1666 26.2429 26.288 27.1216C25.4093 28.0002 23.9951 28.0002 21.1666 28.0002H11.8333C9.00489 28.0002 7.59067 28.0002 6.71199 27.1216C5.83331 26.2429 5.83331 24.8287 5.83331 22.0002V16.0002Z" stroke="#031C59" stroke-width="2"/>
<path d="M22.4999 11.9999L22.6034 11.1725C22.9486 8.41034 21.7057 5.68983 19.3917 4.14263V4.14263C16.6365 2.30041 12.9897 2.52747 10.4843 4.69723L9.39317 5.64215" stroke="#031C59" stroke-width="2" stroke-linecap="round"/>
<ellipse cx="16.5" cy="19.9999" rx="2.66667" ry="2.66667" fill="#031C59"/>
</svg>
