<svg width="33" height="24" viewBox="0 0 33 24" fill="none" xmlns="http://www.w3.org/2000/svg">
<path fill-rule="evenodd" clip-rule="evenodd" d="M32.1372 12.704C32.384 12.5577 32.5303 12.3291 32.5669 12.0731C32.6217 11.7166 32.4754 11.3234 32.1189 11.1223C27.3646 8.23313 17.28 0.571411 12.352 0.571411C6.03431 0.571411 0.914307 5.69142 0.914307 12.0091C0.914307 18.3268 6.03431 23.4468 12.352 23.4468C17.2709 23.4377 27.3189 15.648 32.1372 12.704ZM12.352 6.56913C9.35316 6.56913 6.92116 9.00113 6.92116 12C6.92116 14.9988 9.35316 17.4308 12.352 17.4308C15.3509 17.4308 17.7829 14.9988 17.7829 12C17.792 9.00113 15.36 6.56913 12.352 6.56913Z" fill="#031C59"/>
</svg>
